<svg width="30" height="30" viewBox="0 0 30 30" fill="none" xmlns="http://www.w3.org/2000/svg">
<g clip-path="url(#clip0_185_426)">
<path d="M22.5 22.5V24.375H24.8055C24.2815 24.9662 23.6378 25.4391 22.917 25.7624C22.1962 26.0856 21.4149 26.2519 20.625 26.25C19.1337 26.2484 17.7039 25.6552 16.6493 24.6007C15.5948 23.5461 15.0016 22.1163 15 20.625H13.125C13.122 22.15 13.5848 23.6396 14.4516 24.8943C15.3185 26.149 16.5478 27.1091 17.9753 27.6459C19.4027 28.1827 20.96 28.2707 22.4388 27.8981C23.9176 27.5255 25.2474 26.7101 26.25 25.561V28.125H28.125V22.5H22.5Z" fill="#5E454B"/>
<path d="M20.625 13.125C19.5594 13.1305 18.5072 13.3618 17.5376 13.8038C16.568 14.2458 15.7031 14.8883 15 15.689V13.125H13.125V18.75H18.75V16.875H16.4445C16.9685 16.2838 17.6122 15.8109 18.333 15.4876C19.0538 15.1644 19.8351 14.9981 20.625 15C22.1163 15.0016 23.5461 15.5948 24.6007 16.6493C25.6552 17.7039 26.2484 19.1337 26.25 20.625H28.125C28.1227 18.6366 27.3318 16.7302 25.9258 15.3242C24.5198 13.9182 22.6134 13.1273 20.625 13.125Z" fill="#5E454B"/>
<path d="M11.25 26.25H5.625V22.5H7.5V20.625H5.625V15.9375H7.5V14.0625H5.625V9.375H7.5V7.5H5.625V3.75H22.5V11.25H24.375V3.75C24.375 3.25272 24.1775 2.77581 23.8258 2.42417C23.4742 2.07254 22.9973 1.875 22.5 1.875H5.625C5.12772 1.875 4.65081 2.07254 4.29917 2.42417C3.94754 2.77581 3.75 3.25272 3.75 3.75V7.5H1.875V9.375H3.75V14.0625H1.875V15.9375H3.75V20.625H1.875V22.5H3.75V26.25C3.75 26.7473 3.94754 27.2242 4.29917 27.5758C4.65081 27.9275 5.12772 28.125 5.625 28.125H11.25V26.25Z" fill="#5E454B"/>
</g>
<defs>
<clipPath id="clip0_185_426">
<rect width="30" height="30" fill="white"/>
</clipPath>
</defs>
</svg>
