<svg width="30" height="30" viewBox="0 0 30 30" fill="none" xmlns="http://www.w3.org/2000/svg">
<g clip-path="url(#clip0_131_579)">
<path d="M7.96185 19.6364C7.73585 19.5056 7.44646 19.5827 7.31544 19.8088C7.21964 19.9742 7.04169 20.077 6.85097 20.077C6.55536 20.077 6.31489 19.8365 6.31489 19.5409C6.31489 19.2453 6.55536 19.0048 6.85097 19.0048C7.11218 19.0048 7.32399 18.7931 7.32399 18.5318C7.32399 18.2705 7.11224 18.0588 6.85097 18.0588C6.03376 18.0588 5.3689 18.7236 5.3689 19.5408C5.3689 20.3581 6.03376 21.0229 6.85097 21.0229C7.37814 21.0229 7.86979 20.7393 8.13423 20.2828C8.26507 20.0567 8.18796 19.7673 7.96185 19.6364Z" fill="black"/>
<path d="M25.6209 19.636C25.3948 19.5053 25.1054 19.5824 24.9746 19.8086C24.8788 19.9741 24.7007 20.0769 24.5099 20.0769C24.2143 20.0769 23.9738 19.8365 23.9738 19.5408C23.9738 19.2452 24.2143 19.0048 24.5099 19.0048C24.7711 19.0048 24.9829 18.793 24.9829 18.5317C24.9829 18.2705 24.7712 18.0587 24.5099 18.0587C23.6927 18.0587 23.0278 18.7236 23.0278 19.5408C23.0278 20.358 23.6927 21.0229 24.5099 21.0229C25.0372 21.0229 25.5291 20.739 25.7934 20.2822C25.9243 20.0562 25.847 19.7668 25.6209 19.636Z" fill="black"/>
<path d="M29.994 18.9215C29.9213 18.2716 29.7368 17.6597 29.4627 17.102C29.6953 16.8441 29.8213 16.4683 29.8142 16.0298C29.8064 15.5601 29.6485 15.0534 29.381 14.6393C28.9288 13.9394 28.2873 13.6583 27.7063 13.6561C25.9972 12.2489 22.519 12.0307 21.081 12.0031C20.8845 11.9993 20.7069 11.886 20.6175 11.7072L18.9319 8.33605C18.5072 7.48668 17.6534 6.95898 16.7037 6.95898H15.4283C12.8223 6.95898 10.454 7.39861 8.38929 8.26568C6.63072 9.00414 5.07763 10.0571 3.77316 11.3955C1.16972 14.0662 0.291576 17.0584 0.0348769 18.2209C-0.0615684 18.6576 0.0441933 19.1086 0.325092 19.4583C0.608685 19.8113 1.03126 20.0138 1.48431 20.0138H3.38357C3.61537 21.7209 5.08144 23.0411 6.85097 23.0411C8.6205 23.0411 10.0866 21.7209 10.3184 20.0138H21.0425C21.2743 21.7209 22.7403 23.0411 24.5099 23.0411C26.2794 23.0411 27.7456 21.7209 27.9773 20.0138H29.0192C29.2973 20.0138 29.5633 19.8947 29.7492 19.6868C29.9359 19.4782 30.025 19.1993 29.994 18.9215ZM27.429 14.6473C27.7393 14.5344 28.2286 14.5991 28.5863 15.1527C28.7579 15.4184 28.8633 15.7521 28.8681 16.0454C28.8687 16.0802 28.8673 16.1136 28.8649 16.146C28.4271 15.5848 27.8828 15.1134 27.2649 14.7577C27.3206 14.7077 27.3798 14.6652 27.429 14.6473ZM6.85103 22.0951C5.44261 22.0951 4.29681 20.9493 4.29681 19.5409C4.29681 18.1325 5.44261 16.9867 6.85103 16.9867C8.25945 16.9867 9.40525 18.1325 9.40525 19.5409C9.40525 20.9493 8.25945 22.0951 6.85103 22.0951ZM24.5099 22.0951C23.1015 22.0951 21.9557 20.9493 21.9557 19.5409C21.9557 18.1325 23.1015 16.9867 24.5099 16.9867C25.9183 16.9867 27.0641 18.1325 27.0641 19.5409C27.0642 20.9493 25.9183 22.0951 24.5099 22.0951ZM29.0442 19.0562C29.0337 19.0679 29.0233 19.0679 29.0193 19.0679H27.9774C27.7456 17.3608 26.2795 16.0406 24.51 16.0406C22.7404 16.0406 21.2743 17.3608 21.0426 19.0679H10.3185C10.0867 17.3608 8.62068 16.0406 6.85109 16.0406C5.08156 16.0406 3.61542 17.3608 3.38369 19.0679H1.48437C1.42349 19.0679 1.36413 19.0577 1.30835 19.0386C2.36761 16.56 4.52497 14.9685 6.85103 14.9685C8.66849 14.9685 10.3137 16.0446 11.0424 17.7102C11.1471 17.9495 11.426 18.0586 11.6653 17.9539C11.9046 17.8492 12.0137 17.5704 11.909 17.331C11.0298 15.3212 9.04437 14.0225 6.85103 14.0225C4.72232 14.0225 2.72445 15.1457 1.37984 17C1.85527 15.6818 2.76886 13.781 4.45044 12.0558C7.13509 9.3015 10.8286 7.90498 15.4282 7.90498H16.7036C17.2926 7.90498 17.8221 8.23223 18.0856 8.7591L19.7712 12.1302C20.0184 12.6248 20.5134 12.9384 21.0628 12.949C21.6775 12.9608 22.8959 13.0154 24.148 13.2487C25.1772 13.4406 26.0176 13.7174 26.6249 14.0607C26.5289 14.1469 26.441 14.2432 26.3674 14.3435C25.7854 14.1361 25.1602 14.0224 24.51 14.0224C22.3154 14.0224 20.3296 15.322 19.4509 17.3333C19.3463 17.5727 19.4556 17.8515 19.695 17.9561C19.9344 18.0607 20.2132 17.9513 20.3177 17.7121C21.0459 16.0454 22.6915 14.9684 24.5099 14.9684C26.8417 14.9684 28.7952 16.713 29.0537 19.0267C29.055 19.0377 29.0518 19.0476 29.0442 19.0562Z" fill="black"/>
<path d="M18.8902 12.291L17.5076 9.06504C17.3534 8.7051 17.0007 8.4726 16.6091 8.4726H14.9236C11.5135 8.4726 8.88491 9.73687 7.67015 10.8195C7.29234 11.1562 7.16525 11.681 7.34636 12.1564C7.53011 12.6387 7.98105 12.9504 8.49526 12.9504H18.4555C18.6145 12.9504 18.7629 12.8705 18.8504 12.7378C18.9379 12.605 18.9528 12.4371 18.8902 12.291ZM12.4325 12.0043H8.49515C8.31474 12.0043 8.24683 11.8629 8.2303 11.8195C8.21044 11.7674 8.17745 11.6344 8.2995 11.5256C9.1255 10.7895 10.606 10.0493 12.4324 9.67295V12.0043H12.4325ZM13.3785 12.0043V9.51615C13.8759 9.45345 14.3925 9.41853 14.9236 9.41853H16.6091C16.6217 9.41853 16.6331 9.42603 16.638 9.43763L17.738 12.0043H13.3785Z" fill="black"/>
</g>
<defs>
<clipPath id="clip0_131_579">
<rect width="30" height="30" fill="white"/>
</clipPath>
</defs>
</svg>
