<svg width="30" height="30" viewBox="0 0 30 30" fill="none" xmlns="http://www.w3.org/2000/svg">
<path d="M21.3715 19.5292C22.3201 19.5292 23.0924 18.7569 23.0924 17.8083V4.48701C23.0924 3.53838 22.3201 2.76611 21.3715 2.76611H14.3953C13.4467 2.76611 12.6744 3.53838 12.6744 4.48701V10.47H8.62852C7.67989 10.47 6.90762 11.2423 6.90762 12.1909V25.5128C6.90762 26.4614 7.67989 27.2337 8.62852 27.2337H15.6047C16.5533 27.2337 17.3256 26.4614 17.3256 25.5128V19.5292H21.3715ZM14.5494 4.64111H21.2174V17.6542H17.3256V12.1909C17.3256 11.2423 16.5533 10.47 15.6047 10.47H14.5494V4.64111ZM15.4506 25.3587H8.78262V12.345H13.6119H15.4506V18.5917V25.3587Z" fill="#5E454B"/>
<path d="M27.102 21.1306C27.1008 21.1171 27.0984 21.1042 27.0961 21.0913C27.0938 21.0743 27.0914 21.0573 27.0885 21.0404C27.0856 21.0251 27.0814 21.0099 27.0773 20.9952C27.0738 20.9806 27.0703 20.9659 27.0662 20.9513C27.0615 20.9366 27.0563 20.922 27.051 20.9073C27.0457 20.8933 27.041 20.8786 27.0352 20.8646C27.0293 20.8511 27.0229 20.8376 27.0164 20.8247C27.0094 20.8101 27.0029 20.796 26.9959 20.7814C26.9889 20.7685 26.9813 20.7562 26.9736 20.7439C26.9654 20.7298 26.9578 20.7163 26.9484 20.7023C26.9391 20.6882 26.9291 20.6753 26.9191 20.6624C26.9109 20.6513 26.9033 20.6396 26.8939 20.629C26.8547 20.581 26.8107 20.5376 26.7633 20.4984C26.7522 20.4896 26.741 20.482 26.7299 20.4732C26.7164 20.4632 26.7035 20.4527 26.6895 20.4439C26.676 20.4351 26.6619 20.4269 26.6484 20.4187C26.6361 20.4111 26.6238 20.4034 26.6109 20.3964C26.5969 20.3888 26.5822 20.3823 26.5682 20.3759C26.5547 20.3695 26.5418 20.363 26.5277 20.3572C26.5137 20.3513 26.4996 20.3466 26.4856 20.3419C26.4709 20.3366 26.4563 20.3308 26.4416 20.3267C26.4275 20.3226 26.4129 20.3191 26.3988 20.3156C26.3836 20.3115 26.3684 20.3073 26.3531 20.3044C26.3367 20.3009 26.3197 20.2991 26.3033 20.2968C26.2898 20.295 26.2764 20.2921 26.2629 20.2909C26.2318 20.288 26.2014 20.2863 26.1703 20.2863H23.0713C22.5533 20.2863 22.1338 20.7058 22.1338 21.2238C22.1338 21.7417 22.5533 22.1613 23.0713 22.1613H23.9063L19.3078 26.7597C18.9416 27.1259 18.9416 27.7195 19.3078 28.0857C19.4906 28.2685 19.7309 28.3605 19.9705 28.3605C20.2102 28.3605 20.4504 28.2691 20.6332 28.0857L25.2316 23.4872V24.3234C25.2316 24.8413 25.6512 25.2609 26.1691 25.2609C26.6871 25.2609 27.1066 24.8413 27.1066 24.3234V21.2243C27.1066 21.1921 27.1049 21.1611 27.102 21.1306Z" fill="#5E454B"/>
<path d="M3.30996 9.55659C3.32344 9.56538 3.33692 9.573 3.35098 9.5812C3.36387 9.58882 3.37617 9.59644 3.38907 9.60347C3.40313 9.61108 3.41719 9.61694 3.43184 9.62397C3.44532 9.63042 3.45879 9.63687 3.47227 9.64272C3.48633 9.64858 3.50039 9.65327 3.51446 9.65796C3.5291 9.66323 3.54375 9.66909 3.55899 9.67378C3.57305 9.67788 3.58711 9.6814 3.60117 9.68491C3.61641 9.68901 3.63223 9.69311 3.64746 9.69604C3.66387 9.69956 3.68028 9.70132 3.69668 9.70366C3.71075 9.70542 3.72422 9.70835 3.73828 9.70952C3.76875 9.71245 3.79981 9.71421 3.83086 9.71421H6.93047C7.44844 9.71421 7.86797 9.29468 7.86797 8.77671C7.86797 8.25874 7.44844 7.83921 6.93047 7.83921H6.09375L10.6922 3.24077C11.0584 2.87456 11.0584 2.28101 10.6922 1.91479C10.326 1.54858 9.73243 1.54858 9.36621 1.91479L4.76778 6.51323V5.67769C4.76778 5.15972 4.34825 4.74019 3.83028 4.74019C3.31231 4.74019 2.89278 5.15972 2.89278 5.67769V8.77671C2.89278 8.80776 2.89453 8.83882 2.89746 8.86987C2.89864 8.88335 2.90098 8.89624 2.90332 8.90913C2.90567 8.92612 2.90801 8.94311 2.91094 8.96011C2.91387 8.97534 2.91797 8.99058 2.92207 9.00522C2.92559 9.01987 2.9291 9.03452 2.93321 9.04917C2.93789 9.06382 2.94317 9.07847 2.94844 9.09311C2.95371 9.10718 2.9584 9.12183 2.96426 9.13589C2.97012 9.14936 2.97657 9.16284 2.98301 9.17573C2.99004 9.19038 2.99649 9.20444 3.00352 9.21909C3.01055 9.23198 3.01817 9.24429 3.02578 9.25659C3.03399 9.27065 3.0416 9.28413 3.05098 9.29819C3.06035 9.31226 3.07032 9.32515 3.08028 9.33804C3.08848 9.34917 3.0961 9.36089 3.10547 9.37144C3.14473 9.41948 3.18867 9.46284 3.23614 9.5021C3.24668 9.51089 3.2584 9.51851 3.26953 9.5273C3.28301 9.53667 3.29649 9.54722 3.30996 9.55659Z" fill="#5E454B"/>
</svg>
