<svg width="30" height="30" viewBox="0 0 30 30" fill="none" xmlns="http://www.w3.org/2000/svg">
<g clip-path="url(#clip0_343_941)">
<path d="M29.9074 8.49158C29.9072 8.49105 29.9074 8.49058 29.9071 8.49L25.1267 0.951738C25.0171 0.778886 24.8267 0.674179 24.622 0.674179H5.37803C5.17336 0.674179 4.98293 0.778945 4.87336 0.951738L0.0929297 8.48994C0.0923437 8.49082 0.0924023 8.4917 0.0919922 8.49258C0.0339844 8.58469 0 8.69326 0 8.81004V28.7282C0 29.0582 0.267539 29.3258 0.597598 29.3258H29.4024C29.7325 29.3258 30 29.0582 30 28.7282V8.81004C30 8.69285 29.9658 8.58381 29.9074 8.49158ZM5.70662 1.86937H24.2934L28.3158 8.21238H1.68422L5.70662 1.86937ZM8.45754 28.1306H6.77227V25.3116H8.45754V28.1306ZM20.3472 28.1306H9.65279V25.3116H20.3473V28.1306H20.3472ZM11.8871 24.1164V22.9214H18.1129V24.1164H11.8871ZM23.2277 28.1306H21.5425V25.3116H23.2277V28.1306ZM24.3921 24.1163H19.308V22.3237C19.308 21.9937 19.0405 21.7261 18.7104 21.7261H11.2895C10.9594 21.7261 10.6919 21.9937 10.6919 22.3237V24.1163H5.60783V19.9336C5.60783 19.3508 6.08209 18.8765 6.66498 18.8765H23.335C23.9179 18.8765 24.392 19.3508 24.392 19.9336V24.1163H24.3921ZM13.3605 13.4984C13.3605 13.8284 13.6281 14.096 13.9581 14.096H15.7968C16.1268 14.096 16.3944 13.8284 16.3944 13.4984C16.3944 13.1684 16.1268 12.9008 15.7968 12.9008H15.4751V12.4414H20.2546L22.65 17.6813H7.35012L9.74549 12.4414H14.2798V12.9008H13.9581C13.6281 12.9008 13.3605 13.1684 13.3605 13.4984ZM28.8048 28.1306H24.4229V25.3116H24.9898C25.3198 25.3116 25.5874 25.044 25.5874 24.714V19.9336C25.5874 18.9274 24.924 18.0732 24.0116 17.7853L21.1819 11.5954C21.0847 11.3827 20.8723 11.2462 20.6384 11.2462H9.36164C9.12773 11.2462 8.91533 11.3827 8.81813 11.5954L5.98846 17.7853C5.07609 18.0733 4.4127 18.9274 4.4127 19.9336V24.714C4.4127 25.044 4.68023 25.3116 5.01029 25.3116H5.57713V28.1306H1.1952V9.40764H28.8047L28.8048 28.1306Z" fill="black"/>
<path d="M18.003 19.4585H17.4514C17.1214 19.4585 16.8538 19.7261 16.8538 20.0561C16.8538 20.3861 17.1214 20.6537 17.4514 20.6537H18.003C18.333 20.6537 18.6006 20.3861 18.6006 20.0561C18.6006 19.7261 18.333 19.4585 18.003 19.4585Z" fill="black"/>
<path d="M22.9673 19.4585H20.0868C19.7568 19.4585 19.4892 19.7261 19.4892 20.0561C19.4892 20.3861 19.7568 20.6537 20.0868 20.6537H22.9673C23.2973 20.6537 23.5649 20.3861 23.5649 20.0561C23.5649 19.7261 23.2973 19.4585 22.9673 19.4585Z" fill="black"/>
</g>
<defs>
<clipPath id="clip0_343_941">
<rect width="30" height="30" fill="white"/>
</clipPath>
</defs>
</svg>
