<svg width="34" height="34" viewBox="0 0 34 34" fill="none" xmlns="http://www.w3.org/2000/svg">
<path d="M33.7548 23.9609C33.512 23.4968 33.0317 23.2362 32.5335 23.265C32.391 23.0723 32.192 22.93 31.9591 22.8571C31.6687 22.7661 31.3602 22.7938 31.0907 22.9348C30.821 23.0758 30.6224 23.3134 30.5315 23.6038C30.4626 23.8237 30.4618 24.0539 30.5266 24.2697C30.203 24.6318 30.1191 25.1715 30.357 25.6267C30.5712 26.0357 30.9895 26.2701 31.4221 26.2701C31.6094 26.2701 31.7993 26.2262 31.9763 26.1335C32.1185 26.0592 32.2434 25.9568 32.3442 25.8347C32.6328 25.8937 32.9376 25.854 33.206 25.7135C33.5134 25.5528 33.7398 25.282 33.8435 24.9509C33.9471 24.6199 33.9156 24.2683 33.7548 23.9609ZM32.9879 24.6831C32.9558 24.7855 32.8857 24.8694 32.7905 24.9192C32.6624 24.986 32.5074 24.979 32.3853 24.9004C32.266 24.8235 32.1174 24.8077 31.9848 24.8575C31.852 24.9074 31.7507 25.0173 31.7116 25.1537C31.6884 25.2346 31.6349 25.3003 31.5607 25.3391C31.4127 25.4168 31.229 25.3592 31.1514 25.2111C31.0739 25.0629 31.1314 24.8792 31.2772 24.803L31.2906 24.7965C31.4151 24.7357 31.5045 24.6207 31.5328 24.485C31.561 24.3492 31.5248 24.208 31.4348 24.1026C31.4224 24.0881 31.4119 24.0728 31.4036 24.0568C31.3735 23.9993 31.3677 23.9336 31.387 23.8717C31.4063 23.8099 31.4486 23.7593 31.5062 23.7292C31.5414 23.7108 31.5798 23.7014 31.6183 23.7014C31.6427 23.7014 31.6671 23.7052 31.6912 23.7126C31.753 23.732 31.8037 23.7744 31.8336 23.8316C31.8423 23.8482 31.8491 23.8661 31.854 23.8848C31.8861 24.0099 31.9705 24.1149 32.0856 24.1732C32.2007 24.2313 32.3353 24.2374 32.4551 24.1892C32.6469 24.1124 32.8643 24.1928 32.9603 24.3765C33.0102 24.4717 33.0199 24.5805 32.9879 24.6831Z" fill="#5E454B"/>
<path d="M28.0775 18.5302C28.1151 18.6572 28.1503 18.7882 28.1816 18.9195C28.2308 19.1253 28.4146 19.2638 28.6172 19.2638C28.6518 19.2638 28.6868 19.2597 28.7218 19.2514C28.9625 19.1939 29.111 18.9519 29.0535 18.7112C29.0185 18.5642 28.9792 18.4174 28.9369 18.2751C28.8664 18.0379 28.617 17.9023 28.3796 17.9729C28.1423 18.0433 28.007 18.2929 28.0775 18.5302Z" fill="#5E454B"/>
<path d="M25.0842 14.7059C25.7942 15.1807 26.4045 15.7367 26.8979 16.3583C27.0503 16.5503 27.1936 16.7513 27.3239 16.9561C27.3982 17.0728 27.4705 17.1941 27.5384 17.3165C27.6203 17.464 27.7731 17.5471 27.9307 17.5471C28.0043 17.5471 28.079 17.529 28.1479 17.4907C28.3644 17.3704 28.4424 17.0976 28.3221 16.8812C28.2454 16.7431 28.164 16.6062 28.08 16.4745C27.9331 16.2437 27.7716 16.017 27.6 15.801C27.0487 15.1065 26.37 14.4873 25.5825 13.9607C25.3767 13.823 25.0983 13.8785 24.9607 14.0841C24.8231 14.2899 24.8784 14.5683 25.0842 14.7059Z" fill="#5E454B"/>
<path d="M8.51952 16.445C8.58998 16.4853 8.66681 16.5046 8.74251 16.5046C8.89771 16.5046 9.04865 16.4239 9.13152 16.2797C9.25245 16.0693 9.2996 16.0061 9.47538 15.7709L9.48939 15.7523C9.93736 15.1527 10.4846 14.6225 11.116 14.1765C11.3182 14.0337 11.3664 13.754 11.2235 13.5518C11.0806 13.3498 10.8009 13.3015 10.5988 13.4443C9.89041 13.9446 9.27556 14.5406 8.77114 15.2158L8.75712 15.2345C8.57676 15.476 8.50212 15.576 8.35437 15.8329C8.23099 16.0475 8.30496 16.3215 8.51952 16.445Z" fill="#5E454B"/>
<path d="M7.78374 18.0642C7.84909 18.0985 7.91954 18.1146 7.9892 18.1146C8.1426 18.1146 8.29255 18.036 8.37715 17.8975C8.40212 17.8567 8.41972 17.8135 8.43041 17.7694C8.44641 17.73 8.48267 17.6439 8.56355 17.461C8.66363 17.2345 8.56129 16.9699 8.33491 16.8698C8.10827 16.7698 7.84371 16.872 7.74363 17.0984C7.66481 17.2766 7.62224 17.377 7.59953 17.433C7.56958 17.5067 7.4381 17.8832 7.78374 18.0642Z" fill="#5E454B"/>
<path d="M16.4473 14.927C16.4062 14.9207 15.422 14.7768 14.19 15.2151C13.067 15.6145 11.5063 16.5928 10.4478 18.9849C10.3864 19.1235 10.3993 19.2837 10.482 19.4108C10.5648 19.5379 10.7061 19.6144 10.8577 19.6144H16.3792C16.6269 19.6144 16.8275 19.4138 16.8275 19.1662V15.3701C16.8275 15.1488 16.666 14.9606 16.4473 14.927ZM15.931 18.718H11.5769C13.0029 16.0998 15.0807 15.798 15.931 15.7927V18.718Z" fill="#5E454B"/>
<path d="M23.8572 16.7478C22.7809 15.7618 20.8691 14.641 17.8742 14.9008C17.6426 14.921 17.4648 15.1149 17.4648 15.3474V19.1662C17.4648 19.4139 17.6654 19.6145 17.913 19.6145H25.0835C25.2317 19.6145 25.3704 19.5412 25.4538 19.4187C25.5373 19.2962 25.5549 19.1404 25.5006 19.0024C25.4819 18.9545 25.0275 17.8197 23.8572 16.7478ZM18.3613 18.7179V15.767C20.3076 15.6822 21.9415 16.2239 23.2221 17.3819C23.7449 17.8547 24.1079 18.3466 24.3394 18.7179L18.3613 18.7179Z" fill="#5E454B"/>
<path d="M16.2642 20.7H15.1139C14.903 20.7 14.7305 20.8725 14.7305 21.0834C14.7305 21.2942 14.9031 21.4668 15.1139 21.4668H16.2642C16.4751 21.4668 16.6476 21.2942 16.6476 21.0834C16.6476 20.8725 16.4751 20.7 16.2642 20.7Z" fill="#5E454B"/>
<path d="M25.0679 20.7H23.9175C23.7066 20.7 23.5342 20.8725 23.5342 21.0834C23.5342 21.2942 23.7067 21.4668 23.9175 21.4668H25.0679C25.2788 21.4668 25.4513 21.2942 25.4513 21.0834C25.4513 20.8725 25.2788 20.7 25.0679 20.7Z" fill="#5E454B"/>
<path d="M29.8234 21.7681C29.7536 21.1862 29.5203 20.7645 29.13 20.5146C28.7536 20.2735 28.3356 20.266 28.0554 20.3004C27.3195 17.7639 25.6705 15.5668 23.6057 14.4753C22.9036 14.1041 22.1775 13.8335 21.4581 13.6388H23.9175C24.1953 13.6388 24.4205 13.4136 24.4205 13.1359C24.4205 12.8582 24.1952 12.633 23.9175 12.633H22.9996C23.0881 12.4659 23.1387 12.2758 23.1387 12.074V9.99233C23.1387 9.33106 22.6007 8.7931 21.9394 8.7931H20.7621C20.7875 8.69615 20.8023 8.59508 20.8023 8.49029V6.40872C20.8023 5.74744 20.2643 5.20942 19.6031 5.20942H19.0155L19.2401 5.0025C19.4222 4.83476 19.4339 4.5512 19.2662 4.36912C19.0984 4.1869 18.8149 4.17534 18.6328 4.34309L18.0138 4.91332L17.4044 4.34494C17.2233 4.17607 16.9399 4.18597 16.7708 4.36706C16.602 4.54808 16.6119 4.8317 16.7929 5.00064L17.0169 5.20942H16.4322C15.771 5.20942 15.2329 5.74744 15.2329 6.40872V8.49042C15.2329 8.59514 15.2478 8.69628 15.2731 8.79323H14.0958C13.4344 8.79323 12.8964 9.33119 12.8964 9.99246V12.0742C12.8964 12.276 12.9471 12.466 13.0355 12.6332H12.1177C11.8398 12.6332 11.6147 12.8584 11.6147 13.1361C11.6147 13.4138 11.8399 13.639 12.1177 13.639H14.2623C12.9488 13.9895 11.5712 14.61 10.5946 15.7039C10.1462 16.2061 9.80807 16.7709 9.48109 17.3172C9.41043 17.4353 9.33971 17.5535 9.26779 17.6711C9.25026 17.6997 9.21546 17.763 9.16951 17.8473C8.95495 18.2412 8.79883 18.5045 8.70347 18.6334H6.92006C4.86798 18.6334 3.11352 20.0307 2.43133 21.9884C2.13901 21.9764 1.67457 22.0167 1.29001 22.3224C1.04132 22.5203 0.740828 22.9057 0.721836 23.6188C0.706297 24.2046 0.875633 24.6557 1.22546 24.9597C1.38152 25.0952 1.55357 25.1827 1.72145 25.2382C1.64634 25.3449 1.60192 25.4745 1.60192 25.6141V25.7361C1.60192 26.0979 1.89802 26.394 2.25987 26.394H3.46169C3.58275 26.4231 3.70812 26.4397 3.83728 26.4397H4.53621C4.68715 27.5149 5.37286 28.4209 6.31484 28.8791H4.07482C3.82726 28.8791 3.62658 29.0797 3.62658 29.3273C3.62658 29.5749 3.82726 29.7756 4.07482 29.7756H28.8003C29.0479 29.7756 29.2486 29.5749 29.2486 29.3273C29.2486 29.0797 29.0479 28.8791 28.8003 28.8791H24.0889C25.0309 28.4209 25.7165 27.5149 25.8676 26.4397H26.7861C26.9164 26.4397 27.0431 26.4235 27.1652 26.394H28.373C28.7348 26.394 29.0309 26.0979 29.0309 25.7361V25.695H29.296C29.5436 25.695 29.7443 25.4943 29.7443 25.2467V23.8283C29.7443 23.5807 29.5436 23.3801 29.296 23.3801H29.1422C29.2499 23.3149 29.3546 23.2345 29.4497 23.1331C29.6669 22.9012 29.9082 22.4762 29.8234 21.7681ZM2.07938 24.4073C1.98588 24.3867 1.88986 24.3492 1.81355 24.283C1.67576 24.1632 1.60995 23.9477 1.61812 23.6425C1.62589 23.3491 1.70246 23.1418 1.84536 23.0263C1.93182 22.9565 2.04199 22.9186 2.15043 22.8996L2.07938 24.4073ZM20.8024 9.68965H21.9395C22.1036 9.68965 22.2423 9.82831 22.2423 9.9924V10.585H20.8024V9.68965ZM20.8024 11.4814H22.2423V12.074C22.2423 12.2381 22.1036 12.3768 21.9395 12.3768H20.8024V11.4814ZM18.4438 6.10591H19.6031C19.7672 6.10591 19.9059 6.24463 19.9059 6.40872V7.00133H18.4438V6.10591ZM18.4438 7.89781H19.9059V8.49042C19.9059 8.65451 19.7672 8.79323 19.6031 8.79323H18.7687H18.4438V7.89781ZM18.4658 10.5849V9.99233C18.4658 9.82824 18.6046 9.68959 18.7687 9.68959H19.6031H19.9059V10.5849L18.4658 10.5849ZM19.9059 11.4814V12.3767H18.7687C18.6046 12.3767 18.4658 12.2381 18.4658 12.074V11.4814L19.9059 11.4814ZM16.1295 6.40872C16.1295 6.24463 16.2682 6.10591 16.4323 6.10591H17.5474V7.00126H16.1295V6.40872ZM16.1295 7.89781H17.5474V8.79317H17.2667H16.4322C16.2681 8.79317 16.1295 8.65444 16.1295 8.49035L16.1295 7.89781ZM16.1295 9.68965H16.4323H17.2667C17.4308 9.68965 17.5694 9.82831 17.5694 9.9924V10.585H16.1295V9.68965ZM16.1295 11.4814H17.5694V12.074C17.5694 12.2381 17.4308 12.3768 17.2667 12.3768H16.1295V11.4814ZM13.793 9.9924C13.793 9.82831 13.9317 9.68965 14.0959 9.68965H15.2331V10.5849H13.793V9.9924ZM14.0959 12.3768C13.9317 12.3768 13.793 12.2381 13.793 12.074V11.4814H15.2331V12.3767L14.0959 12.3768ZM8.64549 26.4397C8.47828 26.7867 8.12434 27.0267 7.71335 27.0267C7.30243 27.0267 6.94835 26.7867 6.78121 26.4397C6.7158 26.3039 6.67808 26.1523 6.67808 25.9915C6.67808 25.4197 7.14153 24.9562 7.71335 24.9562C8.28517 24.9562 8.74869 25.4196 8.74869 25.9915C8.74869 26.1523 8.71097 26.3039 8.64549 26.4397ZM9.1118 28.8791C10.0538 28.4209 10.7395 27.5149 10.8905 26.4398H19.5135C19.6644 27.5149 20.3501 28.4209 21.2921 28.8791H9.1118ZM23.6226 26.4397C23.4554 26.7867 23.1014 27.0267 22.6905 27.0267C22.2796 27.0267 21.9255 26.7867 21.7583 26.4397C21.6929 26.3039 21.6551 26.1523 21.6551 25.9915C21.6551 25.4197 22.1187 24.9562 22.6905 24.9562C23.2623 24.9562 23.7258 25.4196 23.7258 25.9915C23.7258 26.1523 23.6881 26.3039 23.6226 26.4397ZM27.6041 24.2766C27.6007 24.4213 27.5958 24.557 27.5901 24.6815C27.5883 24.7213 27.5842 24.7604 27.578 24.7986C27.5692 24.8531 27.5559 24.9056 27.5389 24.9562H26.2214H25.7272C25.2955 23.6933 24.0978 22.7824 22.6905 22.7824C21.2833 22.7824 20.0855 23.6934 19.6539 24.9562H10.7502C10.3184 23.6933 9.1207 22.7824 7.71348 22.7824C6.3062 22.7824 5.10843 23.6934 4.67679 24.9562H3.07986C3.04386 24.8523 3.02341 24.7395 3.02341 24.6213V23.7983C3.02341 21.4447 4.77142 19.5299 6.92013 19.5299H8.86371C9.21739 19.5299 9.43613 19.2322 9.95695 18.276C9.99255 18.2106 10.0191 18.161 10.0329 18.1385C10.1062 18.0186 10.1783 17.8981 10.2504 17.7776C10.5699 17.2438 10.8718 16.7395 11.2634 16.3009C12.7948 14.5857 15.56 14.1915 17.0722 14.1093C18.6948 14.0211 21.073 14.1504 23.1869 15.2678C25.3704 16.4221 27.0993 19.0988 27.4891 21.9283C27.6044 22.7659 27.6198 23.6159 27.6041 24.2766ZM28.8478 24.7985H28.4786C28.4808 24.7731 28.4845 24.7481 28.4856 24.7223C28.4919 24.5858 28.4972 24.4364 28.5008 24.2766H28.8478V24.7985ZM28.7979 22.5175C28.7226 22.599 28.6191 22.6526 28.5146 22.6871L28.3656 21.1852C28.4642 21.1925 28.5658 21.2169 28.6497 21.2716C28.8018 21.3706 28.8971 21.5736 28.9332 21.8747C28.9682 22.1663 28.9226 22.3825 28.7979 22.5175Z" fill="#5E454B"/>
<path d="M32.7505 28.8792H30.6685C30.4209 28.8792 30.2202 29.0798 30.2202 29.3274C30.2202 29.575 30.4209 29.7756 30.6685 29.7756H32.7505C32.9981 29.7756 33.1987 29.575 33.1987 29.3274C33.1987 29.0798 32.998 28.8792 32.7505 28.8792Z" fill="#5E454B"/>
<path d="M2.16903 28.8792H0.544863C0.297234 28.8792 0.096621 29.0798 0.096621 29.3274C0.096621 29.575 0.297234 29.7756 0.544863 29.7756H2.16903C2.41666 29.7756 2.61727 29.575 2.61727 29.3274C2.61727 29.0798 2.41666 28.8792 2.16903 28.8792Z" fill="#5E454B"/>
</svg>
