<svg width="30" height="30" viewBox="0 0 30 30" fill="none" xmlns="http://www.w3.org/2000/svg">
<g clip-path="url(#clip0_185_407)">
<path fill-rule="evenodd" clip-rule="evenodd" d="M15.0025 0L0.4375 14.565L1.67188 15.7959L15.0025 2.46527L28.3331 15.7959L29.5658 14.565L15.0025 0ZM24.5915 16.0522V28.2565H19.3593V19.5391H10.6436V28.2565H5.4132V16.0522H3.66798V30H26.3349V16.0522H24.5915ZM17.6175 21.2826V28.2583H12.3871V21.2826H17.6175ZM15.002 10.8219C15.9644 10.8219 16.7455 11.603 16.7455 12.5654C16.7455 13.5278 15.9644 14.3089 15.002 14.3089C14.0396 14.3089 13.2585 13.5278 13.2585 12.5654C13.2585 11.603 14.0396 10.8219 15.002 10.8219ZM18.4889 12.5654C18.4889 10.6424 16.925 9.07845 15.002 9.07845C13.0789 9.07845 11.515 10.6424 11.515 12.5654C11.515 14.4885 13.0789 16.0524 15.002 16.0524C16.925 16.0524 18.4889 14.4885 18.4889 12.5654Z" fill="white"/>
</g>
<defs>
<clipPath id="clip0_185_407">
<rect width="30" height="30" fill="white"/>
</clipPath>
</defs>
</svg>
