<svg width="30" height="30" viewBox="0 0 30 30" fill="none" xmlns="http://www.w3.org/2000/svg">
<path d="M25.4086 15.1008C25.4086 11.3824 23.4035 7.92129 20.1756 6.06856C19.7268 5.81074 19.1537 5.96543 18.8959 6.41485C18.6381 6.86367 18.7934 7.43672 19.2422 7.69453C21.8895 9.21445 23.5336 12.0521 23.5336 15.1008C23.5336 19.6061 20.0239 23.3068 15.5953 23.6133L17.1504 22.0582C17.5166 21.692 17.5166 21.0984 17.1504 20.7322C16.7842 20.366 16.1906 20.366 15.8244 20.7322L12.8496 23.707C12.6739 23.8828 12.5748 24.1213 12.5748 24.3697C12.5748 24.6182 12.6739 24.8566 12.8496 25.0324L15.8244 28.0078C16.0073 28.1906 16.2475 28.2826 16.4871 28.2826C16.7268 28.2826 16.967 28.1912 17.1498 28.0078C17.516 27.6416 17.516 27.048 17.1498 26.6818L15.9346 25.4666C21.2379 24.9926 25.4086 20.5248 25.4086 15.1008Z" fill="#3E3E3E"/>
<path d="M12.8496 9.26719C13.0324 9.45 13.2727 9.54199 13.5123 9.54199C13.752 9.54199 13.9922 9.45059 14.175 9.26719L17.1498 6.29238C17.3256 6.1166 17.4246 5.87813 17.4246 5.62969C17.4246 5.38125 17.3256 5.14277 17.1498 4.96699L14.1756 1.99219C13.8094 1.62598 13.2158 1.62598 12.8496 1.99219C12.4834 2.3584 12.4834 2.95195 12.8496 3.31816L14.2512 4.71973C8.85999 5.10469 4.59143 9.61348 4.59143 15.1014C4.59143 18.8221 6.59827 22.2844 9.82971 24.1371C9.97678 24.2215 10.1373 24.2613 10.2949 24.2613C10.6201 24.2613 10.936 24.092 11.1088 23.7902C11.3666 23.3408 11.2108 22.7684 10.7619 22.5105C8.11233 20.9912 6.46643 18.1523 6.46643 15.1014C6.46643 10.6711 9.86018 7.01836 14.185 6.60703L12.8496 7.94238C12.4834 8.30742 12.4834 8.90098 12.8496 9.26719Z" fill="#3E3E3E"/>
</svg>
