<svg width="30" height="30" viewBox="0 0 30 30" fill="none" xmlns="http://www.w3.org/2000/svg">
<path d="M14.8537 18.8284C12.7429 18.8284 11.0254 17.1113 11.0254 15.0001C11.0254 12.8893 12.7425 11.1718 14.8537 11.1718C16.9642 11.1718 18.6821 12.8893 18.6821 15.0001C18.6821 17.1113 16.9646 18.8284 14.8537 18.8284ZM14.8537 12.8384C13.6621 12.8384 12.6921 13.808 12.6921 15.0001C12.6921 16.1922 13.6617 17.1618 14.8537 17.1618C16.0458 17.1618 17.0154 16.1922 17.0154 15.0001C17.0154 13.808 16.0458 12.8384 14.8537 12.8384Z" fill="#5E454B"/>
<path d="M14.9638 28.5417H14.8833C13.3625 28.5417 11.9842 27.3967 11.4979 25.8034C10.8475 25.6013 10.2154 25.3388 9.60792 25.0196C8.98375 25.3705 8.29333 25.56 7.6175 25.56C6.74625 25.56 5.94459 25.238 5.36 24.653L5.28834 24.5771C4.22959 23.5188 4.07 21.7342 4.8575 20.2617C4.54417 19.6617 4.32667 19.0217 4.12084 18.3513C2.525 17.8692 1.45834 16.5488 1.45834 15.0513V14.9709C1.45834 13.468 2.52417 12.1396 4.11834 11.6517C4.33459 10.9359 4.57792 10.2809 4.9 9.67046C4.09042 8.21171 4.21167 6.50212 5.26959 5.44379L5.32209 5.38587C5.93125 4.77671 6.77792 4.44046 7.71 4.44046C8.38834 4.44046 9.06875 4.61712 9.67542 4.94504C10.2438 4.65129 10.8342 4.40671 11.4404 4.21462C11.8579 2.60921 13.2525 1.45837 14.8833 1.45837H14.9638C16.5717 1.45837 17.8929 2.58921 18.2804 4.21879C18.8946 4.41421 19.4925 4.66254 20.0671 4.96171C20.65 4.62004 21.3133 4.43587 21.9825 4.43587C22.925 4.43587 23.8025 4.79421 24.4538 5.44504L24.4967 5.48462C25.6517 6.63921 25.79 8.37462 24.9142 9.79879C25.2183 10.3796 25.5125 10.9709 25.7046 11.5663C27.3317 11.9513 28.5421 13.3296 28.5421 14.9709V15.0513C28.5421 16.6838 27.3313 18.0542 25.7025 18.435C25.52 18.9905 25.2575 19.5563 24.9604 20.1275C25.82 21.5621 25.6425 23.3734 24.4783 24.538L24.4175 24.6267C23.7929 25.25 22.9575 25.625 22.0763 25.625H22.0771C21.41 25.625 20.7379 25.3963 20.1371 25.0334C19.5246 25.358 18.8858 25.6084 18.2275 25.8138C17.7763 27.4325 16.4713 28.5417 14.9638 28.5417ZM9.57625 23.2163C9.72167 23.2163 9.86667 23.2538 9.99708 23.33C10.7558 23.7734 11.5667 24.1105 12.4054 24.33C12.7221 24.4125 12.9608 24.6734 13.0158 24.9959C13.1954 26.0496 14.0154 26.875 14.8829 26.875H14.9633C15.9142 26.875 16.5542 25.9367 16.6946 25.0096C16.7442 24.6805 16.985 24.4125 17.3071 24.3284C18.1658 24.103 18.9913 23.7575 19.7617 23.3013C20.0621 23.123 20.4417 23.1517 20.7125 23.3717C21.1246 23.7075 21.6096 23.8921 22.0779 23.8925C22.5204 23.8925 22.9192 23.7275 23.2313 23.4155L23.2867 23.3596C23.9758 22.6705 23.9879 21.5309 23.3142 20.7092C23.0958 20.4421 23.0642 20.068 23.2354 19.7684C23.6833 18.9821 24.0088 18.2134 24.2033 17.4817C24.2938 17.1413 24.6321 16.8942 24.9833 16.865C26.0537 16.7763 26.8746 16.013 26.8746 15.0509V14.9705C26.8746 13.9971 26.0533 13.225 24.9821 13.1338C24.6317 13.1042 24.3154 12.8575 24.2254 12.5175C24.0154 11.7263 23.67 10.9334 23.2213 10.1617C23.0458 9.86004 23.0717 9.48129 23.2938 9.21212C23.9804 8.38004 23.9971 7.33879 23.3379 6.67962L23.2946 6.64004C22.9404 6.28671 22.4804 6.10171 21.9833 6.10171C21.5037 6.10171 21.0258 6.27421 20.6379 6.58671C20.3692 6.80337 19.9946 6.83212 19.6958 6.65837C18.9525 6.22587 18.1575 5.89587 17.3329 5.67712C16.9958 5.58796 16.75 5.29837 16.7167 4.95129C16.6129 3.87629 15.8925 3.12504 14.9638 3.12504H14.8833C13.9196 3.12504 13.1067 3.91462 12.9938 4.96129C12.9567 5.30421 12.7121 5.58879 12.3783 5.67754C11.5721 5.89087 10.7925 6.21212 10.0608 6.63212C9.7775 6.79546 9.42417 6.77712 9.15875 6.58546C8.7375 6.28171 8.20875 6.10796 7.70792 6.10796C7.22084 6.10796 6.79 6.27087 6.49459 6.56629L6.43625 6.62421C5.76959 7.29087 5.975 8.40212 6.52209 9.15504C6.71834 9.42462 6.735 9.78546 6.56417 10.0717C6.12834 10.803 5.79709 11.6163 5.55125 12.5571C5.46917 12.8717 5.25542 13.1096 4.935 13.1667C3.87834 13.355 3.125 14.1309 3.125 14.9713V15.0517C3.125 15.8834 3.8775 16.6496 4.93334 16.8346C5.25459 16.8909 5.49125 17.1292 5.57375 17.445C5.80167 18.3175 6.12334 19.1313 6.55209 19.8638C6.7175 20.1463 6.69667 20.5 6.50667 20.7671C5.88542 21.6413 5.87542 22.8059 6.48792 23.418L6.55792 23.4934C6.88584 23.8209 7.31667 23.8938 7.61792 23.8938C8.10584 23.8938 8.63959 23.7059 9.0825 23.3792C9.22875 23.2709 9.40208 23.2163 9.57625 23.2163Z" fill="#5E454B"/>
<path d="M21.96 12.7038C21.7925 12.7038 21.6346 12.6021 21.5708 12.4363C20.5125 9.68129 17.8179 7.83045 14.8658 7.83004C14.6354 7.83004 14.4492 7.64337 14.4492 7.41337C14.4492 7.18337 14.6354 6.9967 14.8658 6.9967C18.16 6.9967 21.1675 9.06254 22.3488 12.1375C22.4308 12.3521 22.3238 12.5934 22.1092 12.6759C22.06 12.695 22.0096 12.7038 21.96 12.7038Z" fill="#5E454B"/>
<path d="M7.89 18.7159C7.74875 18.7159 7.61084 18.6438 7.53292 18.5142C7.45 18.3767 7.41292 18.2751 7.34625 18.0892C7.31417 18.0013 7.27334 17.888 7.21375 17.7321C7.13125 17.5171 7.23875 17.2763 7.45334 17.1942C7.66792 17.1113 7.90917 17.2192 7.99167 17.4334C8.05375 17.5959 8.09667 17.7142 8.12959 17.8059C8.19042 17.973 8.20792 18.0196 8.24667 18.0838C8.36542 18.2813 8.30209 18.5371 8.105 18.6559C8.03709 18.6967 7.96292 18.7159 7.89 18.7159Z" fill="#5E454B"/>
<path d="M14.6963 22.873C12.3283 22.873 10.0942 21.8338 8.56667 20.0217C8.41834 19.8455 8.44042 19.5826 8.61667 19.4346C8.79209 19.2863 9.05542 19.3084 9.20375 19.4846C10.5725 21.108 12.5746 22.0396 14.6963 22.0396C14.9263 22.0396 15.1129 22.2263 15.1129 22.4563C15.1129 22.6867 14.9263 22.873 14.6963 22.873Z" fill="#5E454B"/>
</svg>
